# xmcd
#
# Track frame offsets:
#	150
#	13505
#	29915
#	43250
#	55568
#	69435
#	85145
#	99318
#	111473
#	123350
#	138890
#	154915
#	165658
#
# Disc length: 2282 seconds
#
# Revision: 0
# Processed by: cddbd v1.4PL0 Copyright (c) Steve Scherf et al.
# Submitted via: AudioConverter v4.1 Copyright (c) Dennis Rebentrost
#
DISCID=aa08e80d
DTITLE=Mats R_dberg and Rankarna - Country Cookin'
DYEAR=1987
DGENRE=Country
TTITLE0=Chicken Truck
TTITLE1=Konto-Kurt
TTITLE2=Makes Me Wonder (If I Ever Said Goodbye)
TTITLE3=Thank You Nadine
TTITLE4=G_r Det Som F_r Dig Att M_ Bra
TTITLE5=Betty's Bein' Bad
TTITLE6=Du Kan Alltid Lita P_ Pojkarna - ver 35
TTITLE7=Hello Out There
TTITLE8=Vad Haru' F_r Gott I Grytan?
TTITLE9=Angel Of Mercy
TTITLE10=G_r Det Igen
TTITLE11=If That's All
TTITLE12=Theme From The TV-Special "Country Cookin'"
EXTD=
EXTT0=
EXTT1=
EXTT2=
EXTT3=
EXTT4=
EXTT5=
EXTT6=
EXTT7=
EXTT8=
EXTT9=
EXTT10=
EXTT11=
EXTT12=
PLAYORDER=
